<svg width="53" height="449" viewBox="0 0 53 449" fill="none" xmlns="http://www.w3.org/2000/svg">
<path d="M41.6548 0.216678C36.4885 7.7655 25.8456 28.8119 24.6045 52.6067C23.0531 82.3502 54.9603 110.449 50.9896 132.597C46.1066 159.834 16.5154 185.055 15.662 217.293C14.8086 249.531 41.9377 276.472 43.5574 299.342C45.1771 322.211 22.9275 359.336 14.9305 380.698C8.53288 397.786 2.97788 425.783 1.00008 437.645" stroke="#EDC311" stroke-opacity="0.5" stroke-width="0.5"/>
<path d="M17.7452 4.5082C16.7704 17.7469 17.1419 48.3982 26.4263 65.0938C38.0318 85.9633 57.8242 118.744 47.7616 139.517C37.6991 160.289 21.9857 193.498 21.2579 219.736C20.5301 245.975 47.1008 287.142 47.0404 300.629C46.98 314.116 14.8517 355.461 11.2972 376.849C8.45351 393.96 17.4932 431.999 22.3685 448.88" stroke="#EDC311" stroke-opacity="0.5" stroke-width="0.5"/>
<path d="M23.728 7.46561C22.4088 14.2989 22.0204 34.3946 31.0208 60.1111C42.2712 92.2568 60.8031 111.392 48.2834 135.517C35.7637 159.642 18.1252 190.926 17.2911 218.181C16.4569 245.437 55.1615 280.783 51.2977 303.042C47.4339 325.301 11.3974 375.7 8.60405 386.093C5.81067 396.486 4.31036 436.195 6.30304 445.584" stroke="#EDC311" stroke-opacity="0.5" stroke-width="0.5"/>
</svg>
