<svg width="1440" height="186" viewBox="0 0 1440 186" fill="none" xmlns="http://www.w3.org/2000/svg">
<path d="M-38.9995 143.299C-13.1662 124.425 58.8005 85.6345 140 81.4623C241.5 76.2472 336.877 194.042 412.5 179.805C505.5 162.297 592 53.8965 702 51.289C812 48.6814 903.5 148.887 981.5 155.219C1059.5 161.552 1186.5 80.3448 1259.5 51.289C1317.9 28.0443 1413.5 8.07771 1454 1" stroke="#EDC311" stroke-opacity="0.5" stroke-width="0.5"/>
<path d="M-23.9995 55.4503C21.1821 52.0835 125.75 53.954 182.569 88.3705C253.592 131.391 365.129 204.713 436.152 168.052C507.176 131.391 620.713 74.155 710.243 71.9104C799.772 69.6659 939.818 168.052 985.834 168.052C1031.85 168.052 1173.4 50.5872 1246.42 37.868C1304.84 27.6927 1434.48 61.5605 1492 79.7664" stroke="#EDC311" stroke-opacity="0.5" stroke-width="0.5"/>
<path d="M-13.9995 77.4953C9.33382 72.7566 77.9005 71.6592 165.5 105.18C275 147.08 340 215.542 422.5 169.901C505 124.259 612 59.9121 705 57.2933C798 54.6745 918 197.585 994 183.743C1070 169.901 1242.5 38.2136 1278 28.1126C1313.5 18.0116 1449 13.1482 1481 20.6304" stroke="#EDC311" stroke-opacity="0.5" stroke-width="0.5"/>
</svg>
