<?xml version="1.0" encoding="utf-8"?>
<!-- Generator: Adobe Illustrator 23.0.1, SVG Export Plug-In . SVG Version: 6.00 Build 0)  -->
<!-- https://www.iconbros.com/  -->
<svg version="1.1" id="Layer_1" xmlns="http://www.w3.org/2000/svg" xmlns:xlink="http://www.w3.org/1999/xlink" x="0px" y="0px"
	 viewBox="0 0 100 100" style="enable-background: new 0 0 100 100;" xml:space="preserve">
<path fill="#fff" d="M86.2,25.6L53,6.4c-1.8-1.1-4.2-1.1-6,0L13.8,25.6c-1.9,1.1-3,3.1-3,5.2v38.4c0,2.1,1.1,4.1,3,5.2L47,93.6
	c0.9,0.5,2,0.8,3,0.8s2.1-0.3,3-0.8l33.2-19.2c1.9-1.1,3-3.1,3-5.2V30.8C89.2,28.7,88.1,26.7,86.2,25.6z M85.2,69.2
	c0,0.7-0.4,1.4-1,1.7L51,90.1c-0.6,0.4-1.4,0.4-2,0L15.8,70.9c-0.6-0.3-1-1-1-1.7V30.8c0-0.7,0.4-1.4,1-1.7L49,9.9
	c0.3-0.2,0.7-0.3,1-0.3s0.7,0.1,1,0.3l33.2,19.2c0.6,0.4,1,1,1,1.7V69.2z M71,48h-7.2c-0.3-2.4-1.3-4.5-2.6-6.4l5.1-5.1
	c0.8-0.8,0.8-2,0-2.8c-0.8-0.8-2-0.8-2.8,0l-5.1,5.1c-1.8-1.4-4-2.3-6.4-2.6V29c0-1.1-0.9-2-2-2s-2,0.9-2,2v7.2
	c-2.4,0.3-4.5,1.3-6.4,2.6l-5.1-5.1c-0.8-0.8-2-0.8-2.8,0c-0.8,0.8-0.8,2,0,2.8l5.1,5.1c-1.4,1.8-2.3,4-2.6,6.4H29c-1.1,0-2,0.9-2,2
	c0,1.1,0.9,2,2,2h7.2c0.3,2.4,1.3,4.5,2.6,6.4l-5.1,5.1c-0.8,0.8-0.8,2,0,2.8c0.4,0.4,0.9,0.6,1.4,0.6c0.5,0,1-0.2,1.4-0.6l5.1-5.1
	c1.8,1.4,4,2.3,6.4,2.6V71c0,1.1,0.9,2,2,2s2-0.9,2-2v-7.2c2.4-0.3,4.5-1.3,6.4-2.6l5.1,5.1c0.4,0.4,0.9,0.6,1.4,0.6
	c0.5,0,1-0.2,1.4-0.6c0.8-0.8,0.8-2,0-2.8l-5.1-5.1c1.4-1.8,2.3-4,2.6-6.4H71c1.1,0,2-0.9,2-2C73,48.9,72.1,48,71,48z M50,60
	c-5.5,0-10-4.5-10-10s4.5-10,10-10s10,4.5,10,10S55.5,60,50,60z"/>
</svg>
