<svg width="60" height="68" viewBox="0 0 60 68" fill="none" xmlns="http://www.w3.org/2000/svg">
<g clip-path="url(#clip0_1860_19)">
<g filter="url(#filter0_f_1860_19)">
<path d="M30.51 56.523C30.5041 56.6516 30.4488 56.7729 30.3557 56.8618C30.2625 56.9506 30.1387 57.0001 30.01 57C29.72 57 29.5 56.79 29.49 56.523C29.345 53.355 27.734 51.306 24.658 50.376C14.53 47.968 7 38.863 7 28C7 15.297 17.297 5 30 5C42.703 5 53 15.297 53 28C53 38.863 45.47 47.968 35.342 50.376C32.266 51.306 30.655 53.356 30.512 56.523H30.51Z" fill="#FF0000"/>
</g>
<path d="M30.51 56.523C30.5041 56.6516 30.4488 56.7729 30.3557 56.8618C30.2625 56.9506 30.1387 57.0001 30.01 57C29.72 57 29.5 56.79 29.49 56.523C29.345 53.355 27.734 51.306 24.658 50.376C14.53 47.968 7 38.863 7 28C7 15.297 17.297 5 30 5C42.703 5 53 15.297 53 28C53 38.863 45.47 47.968 35.342 50.376C32.266 51.306 30.655 53.356 30.512 56.523H30.51Z" fill="#FF0000"/>
<path d="M30 68C27.79 68 26 66.21 26 64C26 61.79 27.79 60 30 60C32.21 60 34 61.79 34 64C34 66.21 32.21 68 30 68Z" fill="white"/>
<path fill-rule="evenodd" clip-rule="evenodd" d="M29.9997 66C30.266 66.006 30.5309 65.9588 30.7787 65.861C31.0266 65.7633 31.2524 65.617 31.4429 65.4308C31.6334 65.2446 31.7848 65.0222 31.8882 64.7766C31.9916 64.5311 32.0449 64.2674 32.0449 64.001C32.045 63.7346 31.9918 63.4708 31.8886 63.2253C31.7853 62.9797 31.634 62.7572 31.4436 62.5709C31.2532 62.3846 31.0274 62.2382 30.7797 62.1403C30.5319 62.0425 30.267 61.9951 30.0007 62.001C29.4781 62.0125 28.9809 62.2282 28.6153 62.6018C28.2498 62.9754 28.0451 63.4773 28.0449 64C28.0448 64.5227 28.2493 65.0246 28.6146 65.3984C28.98 65.7722 29.4772 65.9882 29.9997 66V66Z" fill="#FF0000"/>
<path fill-rule="evenodd" clip-rule="evenodd" d="M30 34.2V39H41.4C41.4788 39 41.5568 38.9845 41.6296 38.9543C41.7024 38.9242 41.7685 38.88 41.8243 38.8243C41.88 38.7685 41.9242 38.7024 41.9543 38.6296C41.9845 38.5568 42 38.4788 42 38.4V24.6C42 24.5212 41.9845 24.4432 41.9543 24.3704C41.9242 24.2976 41.88 24.2315 41.8243 24.1757C41.7685 24.12 41.7024 24.0758 41.6296 24.0457C41.5568 24.0155 41.4788 24 41.4 24H36.446L36.288 26H40V27H36.21L36.051 29H40V30H35.972L35.599 34.715C35.5966 34.7549 35.5863 34.7939 35.5687 34.8299C35.5512 34.8658 35.5267 34.8978 35.4966 34.9242C35.4666 34.9506 35.4317 34.9708 35.3938 34.9837C35.3559 34.9965 35.3159 35.0017 35.276 34.999C35.1996 34.9915 35.1289 34.9555 35.0778 34.8983C35.0266 34.8411 34.9989 34.7667 35 34.69V18.4C35 18.2939 34.9579 18.1922 34.8828 18.1172C34.8078 18.0421 34.7061 18 34.6 18H34V17.4C34 17.2939 33.9579 17.1922 33.8828 17.1172C33.8078 17.0421 33.7061 17 33.6 17H23.4C23.2939 17 23.1922 17.0421 23.1172 17.1172C23.0421 17.1922 23 17.2939 23 17.4V18H22.4C22.2939 18 22.1922 18.0421 22.1172 18.1172C22.0421 18.1922 22 18.2939 22 18.4V38.4C22 38.5591 22.0632 38.7117 22.1757 38.8243C22.2883 38.9368 22.4409 39 22.6 39H27V34.2C27 34.09 27.09 34 27.2 34H29.8C29.91 34 30 34.09 30 34.2ZM25.5 31V25H27.5V31H25.5ZM29.5 25V31H31.5V25H29.5ZM25.5 23V20H27.5V23H25.5ZM29.5 20V23H31.5V20H29.5ZM37 33V32H40V33H37Z" fill="white"/>
<path d="M36.5264 23L36.6054 22H39.6004C39.8204 22 40.0004 22.18 40.0004 22.4V23H36.5264Z" fill="white"/>
</g>
<defs>
<filter id="filter0_f_1860_19" x="1" y="-1" width="58" height="64" filterUnits="userSpaceOnUse" color-interpolation-filters="sRGB">
<feFlood flood-opacity="0" result="BackgroundImageFix"/>
<feBlend mode="normal" in="SourceGraphic" in2="BackgroundImageFix" result="shape"/>
<feGaussianBlur stdDeviation="3" result="effect1_foregroundBlur_1860_19"/>
</filter>
<clipPath id="clip0_1860_19">
<rect width="60" height="68" fill="white"/>
</clipPath>
</defs>
</svg>
