<?xml version="1.0" encoding="utf-8"?>
<!-- Generator: Adobe Illustrator 23.0.1, SVG Export Plug-In . SVG Version: 6.00 Build 0)  -->
<!-- https://www.iconbros.com/  -->
<svg version="1.1" id="Layer_1" xmlns="http://www.w3.org/2000/svg" xmlns:xlink="http://www.w3.org/1999/xlink" x="0px" y="0px"
	 viewBox="0 0 100 100" style="enable-background:new 0 0 100 100;" xml:space="preserve">
<path d="M86.2,25.6L53,6.4c-1.8-1.1-4.1-1.1-6,0L13.8,25.6c-1.9,1.1-3,3.1-3,5.2v38.4c0,2.1,1.1,4.1,3,5.2L47,93.6
	c0.9,0.5,2,0.8,3,0.8c1,0,2.1-0.3,3-0.8l33.2-19.2c1.9-1.1,3-3.1,3-5.2V30.8C89.2,28.7,88.1,26.7,86.2,25.6z M85.2,69.2
	c0,0.7-0.4,1.4-1,1.7L51,90.1c-0.6,0.4-1.4,0.4-2,0L15.8,70.9c-0.6-0.4-1-1-1-1.7V30.8c0-0.7,0.4-1.4,1-1.7L49,9.9
	c0.3-0.2,0.7-0.3,1-0.3s0.7,0.1,1,0.3l33.2,19.2c0.6,0.4,1,1,1,1.7V69.2z M46,27.4c-0.8,0.1-1.4,0.7-1.6,1.5
	c-0.2,0.8,0.1,1.6,0.7,2.1c2.5,2,4.3,4.8,4.8,7.9c0.6,3.4-0.1,6.9-2.1,9.7S43,53.3,39.5,54c-3.1,0.6-6.4,0-9.1-1.7
	c-0.7-0.4-1.5-0.4-2.2,0.1c-0.7,0.5-1,1.2-0.8,2C29.5,65.3,39.2,73,50,73c1.4,0,2.8-0.1,4.1-0.4c6-1.1,11.3-4.5,14.8-9.6
	c3.5-5.1,4.8-11.2,3.7-17.2C70.3,33.5,58.4,25.2,46,27.4z M65.6,60.8c-2.9,4.2-7.2,7-12.2,7.9c-8.8,1.6-17.4-3.2-20.9-11.2
	c2.5,0.7,5.1,0.8,7.7,0.4c4.5-0.8,8.3-3.3,10.9-7.1c2.6-3.7,3.5-8.3,2.7-12.7c-0.5-2.6-1.5-5-3.1-7.1c8.6,0.4,16.2,6.7,17.9,15.5
	C69.6,51.6,68.5,56.6,65.6,60.8z"/>
</svg>
