<?xml version="1.0" encoding="utf-8"?><!DOCTYPE svg PUBLIC "-//W3C//DTD SVG 1.1//EN" "http://www.w3.org/Graphics/SVG/1.1/DTD/svg11.dtd"><svg viewBox="0 0 100 100" xmlns="http://www.w3.org/2000/svg" xmlns:xlink="http://www.w3.org/1999/xlink"><style>:root>svg{display:none}:root>svg:target{display:block}</style><svg fill="none" viewBox="0 0 31 12" id="arrow-btn" xmlns="http://www.w3.org/2000/svg"><path d="M1 1l14.356 10L30 1" stroke="#EDC311" stroke-linecap="round"/></svg><svg viewBox="0 0 24 24" id="back-to-top-btn" xmlns="http://www.w3.org/2000/svg"><path d="M12 0C5.373 0 0 5.373 0 12s5.373 12 12 12 12-5.373 12-12S18.627 0 12 0zm0 7.58l5.995 5.988-1.416 1.414L12 10.408l-4.59 4.574-1.416-1.414L12 7.58z"/></svg><svg viewBox="0 0 24 24" id="behance" xmlns="http://www.w3.org/2000/svg"><path d="M18.003 12.333h-3.018c.289-1.977 2.902-1.715 3.018 0zM8.261 13H6v2.01h2.228c2.036 0 1.911-2.01.033-2.01zm-.08-4H6v2h2.389c1.673 0 1.938-2-.208-2zM24 0v24H0V0h24zM14 8h5V7h-5v1zm-3.552 3.618c1.907-.974 1.837-4.55-1.813-4.604H4v9.978h4.311c4.522 0 4.445-4.534 2.137-5.374zm9.487.602c-.274-1.763-1.529-2.95-3.583-2.95-2.095 0-3.352 1.34-3.352 3.947C13 15.848 14.368 17 16.417 17c2.048 0 3.106-1.135 3.4-2h-2.112c-.737.855-2.893.521-2.767-1.353h5.059c.01-.634-.011-1.089-.062-1.427z"/></svg><svg fill="none" viewBox="0 0 32 22" id="burger-button" xmlns="http://www.w3.org/2000/svg"><path d="M31 1H1M19 11H1M31 21H1" stroke="#fff" stroke-width="2" stroke-linecap="round"/></svg><svg viewBox="0 0 100 100" id="close" xmlns="http://www.w3.org/2000/svg"><path d="M94.4 91.6c.8.8.8 2 0 2.8-.4.4-.9.6-1.4.6s-1-.2-1.4-.6L50 52.8 8.4 94.4c-.4.4-.9.6-1.4.6s-1-.2-1.4-.6c-.8-.8-.8-2 0-2.8L47.2 50 5.6 8.4c-.8-.8-.8-2 0-2.8.8-.8 2-.8 2.8 0L50 47.2 91.6 5.6c.8-.8 2-.8 2.8 0 .8.8.8 2 0 2.8L52.8 50l41.6 41.6z"/></svg><svg fill="none" viewBox="0 0 26 26" id="facebook" xmlns="http://www.w3.org/2000/svg"><path d="M14.25 22.922A10.001 10.001 0 0013 3a10 10 0 00-1.25 19.922V15.5h-2.5V13h2.5v-2.068c0-1.67.175-2.277.5-2.888.32-.605.815-1.1 1.42-1.419.478-.256 1.071-.41 2.109-.476.411-.027.944.006 1.597.1v2.375h-.626c-1.146 0-1.62.053-1.902.205a.909.909 0 00-.393.392c-.15.283-.205.563-.205 1.71V13h3.125l-.625 2.5h-2.5v7.422zM13 25.5C6.096 25.5.5 19.904.5 13S6.096.5 13 .5 25.5 6.096 25.5 13 19.904 25.5 13 25.5z" fill="#fff"/></svg><svg fill="none" viewBox="0 0 26 26" id="hero-clock" xmlns="http://www.w3.org/2000/svg"><path d="M13 25.5C6.096 25.5.5 19.904.5 13S6.096.5 13 .5 25.5 6.096 25.5 13 19.904 25.5 13 25.5zm0-2.5a10 10 0 100-20 10 10 0 000 20zm1.25-10h5v2.5h-7.5V6.75h2.5V13z" fill="#EDC311"/></svg><svg fill="none" viewBox="0 0 18 18" id="hero-facebook" xmlns="http://www.w3.org/2000/svg"><path d="M9.833 15.615A6.668 6.668 0 009 2.333a6.667 6.667 0 00-.834 13.282v-4.948H6.5V9h1.666V7.622c0-1.114.117-1.519.334-1.926.213-.403.543-.733.947-.946.318-.17.714-.273 1.405-.317.274-.018.63.004 1.065.066v1.584H11.5c-.764 0-1.08.035-1.268.136a.606.606 0 00-.262.262c-.1.188-.137.375-.137 1.14V9h2.083l-.416 1.666H9.833v4.948zM9 17.333A8.333 8.333 0 119 .667a8.333 8.333 0 110 16.666z" fill="#EDC311"/></svg><svg fill="none" viewBox="0 0 18 18" id="hero-instagram" xmlns="http://www.w3.org/2000/svg"><path d="M9 6.5a2.5 2.5 0 100 5 2.5 2.5 0 000-5zm0-1.667a4.167 4.167 0 110 8.334 4.167 4.167 0 010-8.334zm5.416-.208a1.041 1.041 0 11-2.082 0 1.041 1.041 0 012.082 0zM9 2.333c-2.062 0-2.399.006-3.358.049-.653.03-1.091.118-1.498.276-.362.14-.623.308-.9.586-.26.252-.461.56-.587.9-.158.409-.245.846-.276 1.499-.043.92-.048 1.241-.048 3.357 0 2.062.006 2.398.048 3.358.031.652.119 1.091.276 1.497.142.363.309.623.585.9.281.28.542.448.9.586.412.16.85.247 1.5.277.92.044 1.242.049 3.358.049 2.062 0 2.398-.006 3.357-.049.652-.03 1.091-.118 1.498-.275.36-.141.623-.309.9-.585.28-.281.448-.542.586-.9.159-.411.247-.85.277-1.5.043-.92.048-1.242.048-3.358 0-2.062-.005-2.398-.048-3.357-.03-.652-.118-1.092-.277-1.499a2.427 2.427 0 00-.585-.9 2.404 2.404 0 00-.9-.586c-.409-.159-.847-.246-1.499-.276-.92-.044-1.241-.049-3.357-.049zM9 .667c2.264 0 2.546.008 3.435.05.887.041 1.492.18 2.023.387.55.212 1.014.499 1.477.961.424.417.751.92.96 1.477.207.53.346 1.136.388 2.023.04.888.05 1.17.05 3.435 0 2.264-.008 2.547-.05 3.435-.042.888-.181 1.492-.387 2.023a4.07 4.07 0 01-.961 1.477c-.417.424-.92.751-1.477.96-.53.207-1.136.347-2.023.388-.889.04-1.171.05-3.435.05-2.264 0-2.547-.008-3.435-.05-.888-.041-1.492-.181-2.024-.387a4.076 4.076 0 01-1.476-.96 4.087 4.087 0 01-.961-1.478c-.207-.53-.346-1.135-.387-2.023-.04-.888-.05-1.17-.05-3.435 0-2.264.008-2.547.05-3.435.041-.888.18-1.492.387-2.023.209-.557.537-1.06.96-1.477a4.08 4.08 0 011.478-.96C4.072.897 4.676.757 5.565.716 6.453.677 6.735.667 9 .667z" fill="#EDC311"/></svg><svg fill="none" viewBox="0 0 24 24" id="hero-phone" xmlns="http://www.w3.org/2000/svg"><path d="M8.707 10.352a13.195 13.195 0 004.94 4.94l1.105-1.547a1.25 1.25 0 011.618-.37 14.277 14.277 0 005.729 1.705 1.25 1.25 0 011.151 1.246v5.578a1.25 1.25 0 01-1.122 1.244c-.663.068-1.33.102-2.003.102C9.425 23.25.75 14.575.75 3.875c0-.672.034-1.34.103-2.002A1.25 1.25 0 012.096.75h5.578A1.25 1.25 0 018.92 1.901c.158 2.009.739 3.961 1.705 5.729a1.25 1.25 0 01-.37 1.618l-1.548 1.104zm-3.152-.82L7.93 7.834A16.763 16.763 0 016.559 3.25H3.263c-.008.208-.012.416-.012.625-.001 9.32 7.554 16.875 16.874 16.875.209 0 .418-.004.625-.012V17.44a16.761 16.761 0 01-4.585-1.371l-1.696 2.375a15.545 15.545 0 01-1.985-.938l-.073-.04a15.694 15.694 0 01-5.877-5.878l-.042-.073a15.545 15.545 0 01-.937-1.985z" fill="#EDC311"/></svg><svg fill="none" viewBox="0 0 24 28" id="hero-pin" xmlns="http://www.w3.org/2000/svg"><path d="M12 27.66l-7.955-7.955a11.25 11.25 0 1115.91 0L12 27.66zm6.188-9.723a8.75 8.75 0 10-12.375 0L12 24.125l6.188-6.188zM12 14.25a2.5 2.5 0 110-5 2.5 2.5 0 010 5z" fill="#EDC311"/></svg><svg fill="none" viewBox="0 0 18 18" id="hero-pinterest" xmlns="http://www.w3.org/2000/svg"><path d="M6.075 14.993c.02-.28.06-.56.12-.835.052-.245.212-.941.445-1.95l.006-.025.322-1.39c.066-.283.117-.503.151-.576a2.883 2.883 0 01-.237-1.186c0-1.114.63-1.978 1.447-1.978.3-.005.587.125.785.355.198.23.29.537.252.83 0 .378-.071.665-.378 1.696-.059.199-.1.337-.138.476-.043.157-.08.298-.11.435-.08.322-.007.664.197.922a1 1 0 00.839.38c1.243 0 2.166-1.654 2.166-3.79 0-1.642-1.075-2.729-2.86-2.729a3.231 3.231 0 00-2.416.955 3.442 3.442 0 00-.995 2.468c-.021.492.13.976.426 1.37a.44.44 0 01.146.492c-.034.14-.117.46-.147.566a.342.342 0 01-.327.284.323.323 0 01-.148-.035c-.967-.399-1.497-1.481-1.497-2.866 0-2.488 2.076-4.654 5.16-4.654 2.612 0 4.567 1.941 4.567 4.284 0 2.943-1.61 5.086-3.908 5.086a2.09 2.09 0 01-1.705-.799l-.036.148-.172.71-.002.006-.24.978a6.08 6.08 0 01-.333.867 6.667 6.667 0 10-1.38-.495zM9 17.333A8.333 8.333 0 119 .667a8.333 8.333 0 110 16.666z" fill="#EDC311"/></svg><svg fill="none" viewBox="0 0 20 42" id="hero__arrow" xmlns="http://www.w3.org/2000/svg"><path d="M10 1v40m0 0l9-8m-9 8l-9-8" stroke="#fff" stroke-linecap="round"/></svg><svg fill="none" viewBox="0 0 31 12" id="hero__arrow-mobile" xmlns="http://www.w3.org/2000/svg"><path d="M1 1l14.356 10L30 1" stroke="#CFCFCF" stroke-linecap="round"/></svg><svg fill="none" viewBox="0 0 26 26" id="instagram" xmlns="http://www.w3.org/2000/svg"><path d="M13 9.25a3.75 3.75 0 100 7.5 3.75 3.75 0 000-7.5zm0-2.5a6.25 6.25 0 110 12.5 6.25 6.25 0 010-12.5zm8.125-.313a1.563 1.563 0 11-3.126 0 1.563 1.563 0 013.126 0zM12.999 3c-3.092 0-3.597.009-5.036.072-.98.047-1.637.178-2.247.415-.543.21-.934.462-1.35.879-.391.378-.692.84-.88 1.35-.238.613-.369 1.269-.414 2.248C3.007 9.344 3 9.826 3 13c0 3.092.008 3.597.072 5.036.046.979.178 1.637.414 2.246.212.544.462.935.877 1.35.422.42.813.671 1.35.879.618.239 1.275.371 2.25.416C9.343 22.992 9.826 23 13 23c3.093 0 3.598-.009 5.037-.073.977-.046 1.636-.177 2.246-.413a3.65 3.65 0 001.35-.878c.421-.421.672-.813.88-1.35.238-.616.37-1.275.415-2.25.065-1.38.073-1.863.073-5.036 0-3.093-.01-3.598-.073-5.036-.046-.978-.177-1.638-.415-2.248a3.639 3.639 0 00-.879-1.35 3.606 3.606 0 00-1.35-.88c-.612-.237-1.27-.369-2.247-.414C16.656 3.007 16.173 3 12.999 3zm0-2.5c3.397 0 3.82.012 5.153.075 1.331.062 2.238.271 3.035.581.825.318 1.52.748 2.215 1.441a6.135 6.135 0 011.441 2.215c.309.797.519 1.704.581 3.035.06 1.333.076 1.757.076 5.153s-.013 3.82-.076 5.152c-.062 1.331-.272 2.238-.58 3.035a6.105 6.105 0 01-1.442 2.215 6.143 6.143 0 01-2.215 1.441c-.796.31-1.704.52-3.035.582-1.332.058-1.756.075-5.153.075-3.396 0-3.82-.013-5.152-.075-1.331-.063-2.237-.273-3.035-.582a6.113 6.113 0 01-2.215-1.44 6.13 6.13 0 01-1.441-2.216c-.31-.796-.519-1.704-.581-3.035C.515 16.82.5 16.396.5 13s.012-3.82.075-5.153c.062-1.332.27-2.237.58-3.035a6.1 6.1 0 011.442-2.215 6.121 6.121 0 012.215-1.441C5.61.846 6.515.637 7.847.575 9.18.516 9.603.5 12.999.5z" fill="#fff"/></svg><svg viewBox="0 0 24 24" id="linkedin" xmlns="http://www.w3.org/2000/svg"><path d="M0 0v24h24V0H0zm8 19H5V8h3v11zM6.5 6.732c-.966 0-1.75-.79-1.75-1.764s.784-1.764 1.75-1.764 1.75.79 1.75 1.764-.783 1.764-1.75 1.764zM20 19h-3v-5.604c0-3.368-4-3.113-4 0V19h-3V8h3v1.765c1.397-2.586 7-2.777 7 2.476V19z"/></svg><svg fill="none" viewBox="0 0 80 19" id="logo" xmlns="http://www.w3.org/2000/svg"><path d="M10.025 8.6H18.8v1.35c0 2.5-.8 4.525-2.4 6.075-1.6 1.55-3.667 2.325-6.2 2.325-2.7 0-4.942-.875-6.725-2.625-1.767-1.767-2.65-3.917-2.65-6.45 0-2.55.875-4.708 2.625-6.475C5.217 1.033 7.4.15 10 .15c1.617 0 3.1.367 4.45 1.1 1.35.733 2.408 1.725 3.175 2.975l-2.95 1.7c-.417-.717-1.05-1.3-1.9-1.75a5.89 5.89 0 00-2.8-.675c-1.683 0-3.058.55-4.125 1.65-1.067 1.067-1.6 2.442-1.6 4.125 0 1.65.542 3.017 1.625 4.1 1.083 1.067 2.533 1.6 4.35 1.6 1.317 0 2.417-.292 3.3-.875s1.483-1.4 1.8-2.45h-5.3V8.6zM34.579 18h-3.725l-3.525-6.075h-2.625V18h-3.45V.5h7c1.617 0 2.992.567 4.125 1.7s1.7 2.5 1.7 4.1c0 1.083-.308 2.092-.925 3.025a5.821 5.821 0 01-2.45 2.075l3.875 6.6zM28.254 3.725h-3.55V8.9h3.55c.65 0 1.208-.25 1.675-.75.467-.517.7-1.133.7-1.85 0-.717-.233-1.325-.7-1.825-.467-.5-1.025-.75-1.675-.75zM51.61 18h-3.75l-1.05-3.15h-6.975L38.785 18H35.06L41.185.5h4.275L51.61 18zM43.335 4.475l-2.4 7.15h4.8l-2.4-7.15zM58.894 18.35c-1.717 0-3.167-.383-4.35-1.15-1.183-.767-2.025-1.825-2.525-3.175l2.95-1.725c.683 1.783 2.025 2.675 4.025 2.675.933 0 1.633-.167 2.1-.5.467-.333.7-.783.7-1.35 0-.617-.275-1.092-.825-1.425-.55-.35-1.533-.725-2.95-1.125-1.533-.467-2.742-1.008-3.625-1.625-1.1-.817-1.65-2.017-1.65-3.6 0-1.6.558-2.858 1.675-3.775C55.536.625 56.894.15 58.494.15c1.4 0 2.642.342 3.725 1.025 1.083.683 1.925 1.65 2.525 2.9l-2.9 1.675c-.7-1.5-1.817-2.25-3.35-2.25-.7 0-1.258.167-1.675.5a1.496 1.496 0 00-.625 1.25c0 .55.225 1 .675 1.35.5.35 1.383.717 2.65 1.1l1.2.4c.217.067.592.208 1.125.425.5.183.867.358 1.1.525.817.5 1.367 1.017 1.65 1.55.433.7.65 1.525.65 2.475 0 1.617-.592 2.9-1.775 3.85-1.183.95-2.708 1.425-4.575 1.425zm14.038 0c-1.717 0-3.167-.383-4.35-1.15-1.183-.767-2.025-1.825-2.525-3.175l2.95-1.725c.683 1.783 2.025 2.675 4.025 2.675.933 0 1.633-.167 2.1-.5.467-.333.7-.783.7-1.35 0-.617-.275-1.092-.825-1.425-.55-.35-1.533-.725-2.95-1.125-1.533-.467-2.742-1.008-3.625-1.625-1.1-.817-1.65-2.017-1.65-3.6 0-1.6.558-2.858 1.675-3.775C69.574.625 70.932.15 72.532.15c1.4 0 2.642.342 3.725 1.025 1.083.683 1.925 1.65 2.525 2.9l-2.9 1.675c-.7-1.5-1.817-2.25-3.35-2.25-.7 0-1.258.167-1.675.5a1.496 1.496 0 00-.625 1.25c0 .55.225 1 .675 1.35.5.35 1.383.717 2.65 1.1l1.2.4c.217.067.592.208 1.125.425.5.183.867.358 1.1.525.817.5 1.367 1.017 1.65 1.55.433.7.65 1.525.65 2.475 0 1.617-.592 2.9-1.775 3.85-1.183.95-2.708 1.425-4.575 1.425z" fill="#fff"/></svg><svg fill="none" viewBox="0 0 24 24" id="modal__close-button" xmlns="http://www.w3.org/2000/svg"><path fill-rule="evenodd" clip-rule="evenodd" d="M22.92 1.707A1 1 0 0021.506.293l-9.864 9.864L1.778.293A1 1 0 10.364 1.707l9.864 9.864-9.935 9.935a1 1 0 101.414 1.414l9.935-9.935 9.935 9.935a1 1 0 001.414-1.414l-9.935-9.935 9.864-9.864z" fill="#BBDF5B"/></svg><svg fill="none" viewBox="0 0 24 24" id="phone" xmlns="http://www.w3.org/2000/svg"><path d="M8.488 10.243a14.075 14.075 0 005.27 5.269l1.178-1.65a1.334 1.334 0 011.725-.395 15.23 15.23 0 006.111 1.818A1.333 1.333 0 0124 16.615v5.949a1.333 1.333 0 01-1.197 1.327 20.69 20.69 0 01-2.136.109C9.253 24 0 14.747 0 3.333c0-.717.036-1.429.11-2.136A1.333 1.333 0 011.435 0h5.95a1.333 1.333 0 011.329 1.228 15.23 15.23 0 001.818 6.11 1.333 1.333 0 01-.394 1.726l-1.651 1.179zm-3.363-.876l2.534-1.81a17.88 17.88 0 01-1.463-4.89H2.68c-.008.221-.012.444-.012.666-.001 9.942 8.057 18 17.999 18 .222 0 .445-.004.666-.013v-3.516a17.876 17.876 0 01-4.89-1.463l-1.81 2.534a16.596 16.596 0 01-2.117-1l-.077-.044a16.741 16.741 0 01-6.27-6.27l-.044-.077a16.589 16.589 0 01-1-2.117z" fill="#FFF"/></svg><svg fill="none" viewBox="0 0 26 26" id="pinterest" xmlns="http://www.w3.org/2000/svg"><path d="M8.613 21.989c.03-.42.09-.839.18-1.252.078-.368.317-1.412.667-2.924l.009-.038.484-2.085c.098-.425.175-.755.226-.865a4.324 4.324 0 01-.355-1.779c0-1.671.945-2.966 2.17-2.966.45-.008.88.188 1.177.533.298.343.435.805.378 1.245 0 .566-.106.997-.566 2.543-.09.298-.15.505-.208.714a15.85 15.85 0 00-.165.652c-.12.483-.01.997.296 1.383a1.5 1.5 0 001.258.57c1.865 0 3.25-2.481 3.25-5.685 0-2.463-1.613-4.093-4.29-4.093A4.848 4.848 0 009.5 9.376a5.163 5.163 0 00-1.494 3.701 3.191 3.191 0 00.64 2.055.659.659 0 01.219.738c-.051.21-.175.69-.22.85a.512.512 0 01-.492.426.486.486 0 01-.222-.052c-1.45-.6-2.245-2.223-2.245-4.3 0-3.732 3.114-6.98 7.74-6.98 3.919 0 6.851 2.91 6.851 6.425 0 4.415-2.415 7.63-5.862 7.63a3.135 3.135 0 01-2.557-1.2l-.054.222-.259 1.065-.002.009c-.183.75-.31 1.271-.36 1.467-.133.444-.3.879-.5 1.3a10 10 0 10-2.07-.741v-.001zM13 25.5C6.096 25.5.5 19.904.5 13S6.096.5 13 .5 25.5 6.096 25.5 13 19.904 25.5 13 25.5z" fill="#fff"/></svg><svg fill="none" viewBox="0 0 42 20" id="swiper-button-next" xmlns="http://www.w3.org/2000/svg"><path d="M.999 10h40m0 0l-8-9m8 9l-8 9" stroke="#EDC311" stroke-linecap="round"/></svg><svg viewBox="0 0 42 20" fill="none" id="swiper-button-prev" xmlns="http://www.w3.org/2000/svg"><path d="M40.999 10h-40m0 0l8 9m-8-9l8-9" stroke="#EDC311" stroke-linecap="round"/></svg><svg fill-rule="evenodd" clip-rule="evenodd" stroke-linejoin="round" stroke-miterlimit="1.414" viewBox="0 0 24 24" id="telegram" xmlns="http://www.w3.org/2000/svg"><path d="M12 0C5.374 0 0 5.372 0 12c0 6.627 5.374 12 12 12 6.627 0 12-5.373 12-12 0-6.628-5.373-12-12-12zm3.224 17.871c.188.133.43.166.646.085a.678.678 0 00.422-.491c.507-2.382 1.737-8.412 2.198-10.578a.457.457 0 00-.151-.443.47.47 0 00-.465-.082c-2.446.906-9.979 3.732-13.058 4.871a.484.484 0 00-.316.467.483.483 0 00.346.445c1.381.413 3.193.988 3.193.988s.847 2.558 1.288 3.858a.512.512 0 00.352.336.505.505 0 00.474-.121l1.805-1.704s2.084 1.527 3.266 2.369zm-6.423-5.062l.98 3.231.218-2.046 5.941-5.358a.162.162 0 00.019-.22.165.165 0 00-.219-.037l-6.939 4.43z"/></svg></svg>